# xmcd CD database file
# Copyright (C) 1995-1998 Ti Kan
#
# Track frame offsets:
#	182
#	17115
#	39677
#	68447
#	96317
#	113482
#	137930
#	156230
#	180505
#	208630
#	228327
#	250190
#
# Disc length: 3697 seconds
#
# Revision: 1
# Processed by: cddbd v1.4PL0 Copyright (c) Steve Scherf et al.
# Submitted via: CDex 1.30Release
#
DISCID=9c0e6f0c
DTITLE=Jerry "Boogie" McCain - This Stuff Just Kills Me
DYEAR=2000
DGENRE=Blues
TTITLE0=Where You Been
TTITLE1=Super Woman
TTITLE2=This Stuff Just Kills Me
TTITLE3=Viagra Man
TTITLE4=Slave Master
TTITLE5=My Deal At The Crossroads
TTITLE6=Jealousy
TTITLE7=Ain't No Use For Drug Abuse
TTITLE8=Mama's Gone
TTITLE9=Madison Mood
TTITLE10=Deadbeats
TTITLE11=Pull Up In My Carage
EXTD=YEAR: 2000 ID3G:   0
EXTT0=
EXTT1=
EXTT2=
EXTT3=
EXTT4=
EXTT5=
EXTT6=
EXTT7=
EXTT8=
EXTT9=
EXTT10=
EXTT11=
PLAYORDER=
